 <svg width="14" height="14" viewBox="0 0 14 14" fill="none" xmlns="http://www.w3.org/2000/svg"
                    class="verified">
                    <mask id="mask0_43_17" style="mask-type:luminance" maskUnits="userSpaceOnUse" x="0" y="0" width="14"
                        height="14">
                        <path d="M14 0H0V14H14V0Z" fill="white" />
                    </mask>
                    <g mask="url(#mask0_43_17)">
                        <path
                            d="M7.79018 0.857425C7.38173 0.358559 6.61885 0.358561 6.21046 0.857425L5.63187 1.5641C5.59221 1.61254 5.52606 1.63027 5.4675 1.60815L4.6131 1.28543C4.00996 1.05762 3.34929 1.43905 3.245 2.0753L3.09729 2.97659C3.08716 3.03837 3.03874 3.08679 2.97696 3.09692L2.07567 3.24463C1.43943 3.34892 1.05798 4.00959 1.2858 4.61273L1.60851 5.46713C1.63063 5.5257 1.61291 5.59185 1.56447 5.6315L0.857793 6.21006C0.358928 6.61851 0.358929 7.3814 0.857793 7.78985L1.56447 8.3684C1.61291 8.40806 1.63063 8.47421 1.60851 8.53278L1.2858 9.38719C1.05799 9.9903 1.43942 10.651 2.07567 10.7553L2.97696 10.903C3.03874 10.9131 3.08716 10.9615 3.09729 11.0233L3.245 11.9246C3.34929 12.5608 4.00996 12.9423 4.6131 12.7145L5.4675 12.3918C5.52606 12.3697 5.59221 12.3873 5.63187 12.4358L6.21046 13.1425C6.61885 13.6413 7.38173 13.6413 7.79018 13.1425L8.36873 12.4358C8.4084 12.3873 8.47455 12.3697 8.53312 12.3918L9.38753 12.7145C9.99069 12.9423 10.6514 12.5608 10.7556 11.9246L10.9034 11.0233C10.9135 10.9615 10.9619 10.9131 11.0237 10.903L11.925 10.7553C12.5612 10.651 12.9427 9.9903 12.7149 9.38719L12.3921 8.53278C12.37 8.47421 12.3877 8.40806 12.4361 8.3684L13.1429 7.78985C13.6417 7.3814 13.6417 6.61851 13.1429 6.21006L12.4361 5.6315C12.3877 5.59185 12.37 5.5257 12.3921 5.46713L12.7149 4.61273C12.9427 4.00959 12.5612 3.34892 11.925 3.24463L11.0237 3.09692C10.9619 3.08679 10.9135 3.03837 10.9034 2.97659L10.7556 2.0753C10.6514 1.43906 9.99069 1.05761 9.38753 1.28543L8.53312 1.60815C8.47455 1.63027 8.4084 1.61254 8.36873 1.5641L7.79018 0.857425Z"
                            fill="#1C9BEF" />
                        <path fill-rule="evenodd" clip-rule="evenodd"
                            d="M10.5177 4.64914C10.6885 4.81999 10.6885 5.097 10.5177 5.26785L6.43434 9.35117C6.35232 9.43324 6.24102 9.47933 6.12499 9.47933C6.00897 9.47933 5.89767 9.43324 5.81564 9.35117L3.4823 7.01784C3.31145 6.84698 3.31145 6.57001 3.4823 6.39915C3.65315 6.22829 3.93017 6.22829 4.10102 6.39915L6.12499 8.42309L9.89899 4.64914C10.0698 4.47828 10.3468 4.47828 10.5177 4.64914Z"
                            fill="black" />
                    </g>
                </svg>